HIERARCHY
ROOT Hips
{
  OFFSET -32.5998 29.0326 120.673
  CHANNELS 6 Xposition Yposition Zposition Zrotation Xrotation Yrotation
  JOINT LeftUpLeg
  {
    OFFSET 8.64259 1.95398 -2.38835
    CHANNELS 3 Zrotation Xrotation Yrotation
    JOINT LeftLeg
    {
      OFFSET 43.7702 0 0
      CHANNELS 3 Zrotation Xrotation Yrotation
      JOINT LeftFoot
      {
        OFFSET 40.6238 0 0
        CHANNELS 3 Zrotation Xrotation Yrotation
        JOINT LeftToeBase
        {
          OFFSET 12.7242 0 0
          CHANNELS 3 Zrotation Xrotation Yrotation
          End Site
          {
            OFFSET 0 0 0
          }
        }
      }
    }
  }
  JOINT RightUpLeg
  {
    OFFSET -8.2249 1.95398 -2.59336
    CHANNELS 3 Zrotation Xrotation Yrotation
    JOINT RightLeg
    {
      OFFSET 43.5653 0 0
      CHANNELS 3 Zrotation Xrotation Yrotation
      JOINT RightFoot
      {
        OFFSET 40.6238 0 0
        CHANNELS 3 Zrotation Xrotation Yrotation
        JOINT RightToeBase
        {
          OFFSET 12.7242 0 0
          CHANNELS 3 Zrotation Xrotation Yrotation
          End Site
          {
            OFFSET 0 0 0
          }
        }
      }
    }
  }
  JOINT Spine
  {
    OFFSET 0.165834 0.87714 6.61349
    CHANNELS 3 Zrotation Xrotation Yrotation
    JOINT Spine1
    {
      OFFSET 7.38963 1.71661e-005 0
      CHANNELS 3 Zrotation Xrotation Yrotation
      JOINT Spine2
      {
        OFFSET 11.9445 1.14441e-005 0
        CHANNELS 3 Zrotation Xrotation Yrotation
        JOINT Spine3
        {
          OFFSET 14.7254 4.19617e-005 0
          CHANNELS 3 Zrotation Xrotation Yrotation
          JOINT Spine4
          {
            OFFSET 10.9679 0 0
            CHANNELS 3 Zrotation Xrotation Yrotation
            JOINT RightShoulder
            {
              OFFSET 2.46616 -1.6653 3.69651
              CHANNELS 3 Zrotation Xrotation Yrotation
              JOINT RightArm
              {
                OFFSET 13.0012 0 0
                CHANNELS 3 Zrotation Xrotation Yrotation
                JOINT RightForeArm
                {
                  OFFSET 28.7848 1.62311e-005 0
                  CHANNELS 3 Zrotation Xrotation Yrotation
                  JOINT RightHand
                  {
                    OFFSET 26.5688 1.62095e-005 0
                    CHANNELS 3 Zrotation Xrotation Yrotation
                    End Site
                    {
                      OFFSET 0 0 0
                    }
                  }
                }
              }
            }
            JOINT LeftShoulder
            {
              OFFSET 2.38034 -1.29275 -3.7523
              CHANNELS 3 Zrotation Xrotation Yrotation
              JOINT LeftArm
              {
                OFFSET 16.3182 6.07031e-005 0
                CHANNELS 3 Zrotation Xrotation Yrotation
                JOINT LeftForeArm
                {
                  OFFSET 27.0901 0 0
                  CHANNELS 3 Zrotation Xrotation Yrotation
                  JOINT LeftHand
                  {
                    OFFSET 24.5451 1.51738e-005 0
                    CHANNELS 3 Zrotation Xrotation Yrotation
                    End Site
                    {
                      OFFSET 0 0 0
                    }
                  }
                }
              }
            }
            JOINT Neck
            {
              OFFSET 5.0226 -0.0266342 0
              CHANNELS 3 Zrotation Xrotation Yrotation
              JOINT Head
              {
                OFFSET 6.69364 2.86102e-005 0
                CHANNELS 3 Zrotation Xrotation Yrotation
                End Site
                {
                  OFFSET 0 0 0
                }
              }
            }
          }
        }
      }
    }
  }
}
MOTION
Frames:	9
Frame Time:	0.0416667
-268.531 89.8934 -233.651 101.812 -44.7101 97.4614 -174.364 36.45 85.7866 -36.1027 4.0298 -2.54515 66.5546 3.85327 3.71418 22.6001 -1.18092 -2.9384 171.485 -7.12551 90.6613 -49.2976 -17.2805 -1.51325 82.7176 -15.8918 -6.30532 37.1955 -4.84254 7.29872 1.26327 8.23984 -90.493 10.4066 2.29067 -1.18037 -1.26299 2.23651 -1.28007 -23.8134 2.53946 -0.436999 -3.8008 2.53947 -0.436998 91.6772 -21.7831 -106.561 20.8635 13.8195 4.56295 2.81905 -2.24968 -103.538 -30.0898 6.05611 -27.9349 -86.4579 -44.6958 83.1721 -21.7714 18.4759 3.03234 -19.7245 -6.46626 -102.408 0.000492998 -0.066266 -3.19806 10.3415 -3.81383 -0.357566 -12.7926 -3.60027 -0.682424 
-261.199 91.7714 -225.728 104.209 -42.6379 99.292 -176.235 27.7337 85.8865 -15.3794 8.006 -1.9132 61.4364 1.88602 0.586228 25.5869 -1.47357 0.280268 170.915 -16.8621 89.7856 -42.3935 -18.5705 -1.73016 71.0202 -6.52327 -5.93573 41.4901 -7.03329 14.6528 1.47153 8.23243 -90.5056 10.4249 2.69978 -1.24294 -1.244 2.64246 -1.36063 -23.8007 2.94842 -0.373487 -3.78803 2.94841 -0.373497 91.6897 -20.897 -106.927 24.5627 10.6177 5.39672 0.819118 -0.310709 -101.915 -29.3921 4.18356 -21.333 -86.8401 -43.4597 82.3334 -21.4172 16.7654 5.24009 -18.7865 -6.37583 -101.384 3.21856 0.127981 -0.25014 5.82436 -5.77379 -2.95338 -12.6407 -5.11498 -0.304522 
-254.398 92.7352 -217.849 102.688 -42.1991 99.1576 -177.356 24.5264 86.664 -6.80782 7.40883 -1.13477 57.827 0.515575 -1.71032 23.497 -4.08335 3.97634 174.217 -18.9044 92.9317 -44.0536 -21.8093 -3.66333 62.7667 0.353874 0.96475 26.0993 -0.236178 4.98803 1.67785 7.8025 -90.5194 11.2899 3.09749 -1.33609 -0.378161 3.0357 -1.47122 -22.9424 3.35571 -0.342457 -2.92974 3.35571 -0.342462 91.5571 -20.5798 -107.379 28.4002 3.7167 7.01631 -0.562798 3.92105 -101.054 -21.6352 1.31982 -12.0044 -86.7068 -40.8158 82.0495 -23.4553 18.0148 7.51882 -21.2739 -6.16683 -100.852 6.58382 0.349022 1.24314 -1.56446 -6.2591 -5.9718 -10.1996 -5.41854 -0.970833 
-247.724 92.0128 -210.74 102.175 -43.9725 99.9204 -175.606 26.4626 87.8957 -16.7255 8.9761 -1.88298 58.6397 -0.541924 -2.86964 24.7725 -3.46459 3.91066 175.492 -16.4127 93.1122 -52.7607 -24.0288 -4.69392 59.3053 2.25693 -1.31697 19.1011 2.22071 6.50106 1.95159 7.59813 -90.5815 11.7055 3.6089 -1.53736 0.0384046 3.53777 -1.69486 -22.5358 3.90388 -0.380203 -2.52314 3.90388 -0.380205 92.1499 -20.2259 -106.157 33.0919 -4.37983 8.60536 -4.85013 9.34792 -102.422 -4.54915 0.0428458 -7.30185 -86.8676 -40.3545 81.69 -22.887 18.7625 8.21114 -21.8758 -5.96854 -101.179 5.4117 0.277156 1.02484 -2.42736 -6.85442 -7.61242 -11.1812 -5.93122 0.156581 
-240.936 91.1788 -203.923 105.357 -45.2797 102.297 -173.832 27.7265 88.4231 -29.8563 16.8822 -3.40697 52.0516 -6.29777 1.7981 22.5145 -0.175405 -5.1667 173.195 -14.5163 90.3104 -61.1398 -12.1572 -3.90622 62.5777 0.133975 -2.08834 15.9305 2.9414 7.99072 1.83309 7.78744 -90.6103 11.3244 3.3635 -1.55091 -0.343295 3.29198 -1.69755 -22.9123 3.67391 -0.467155 -2.89961 3.67394 -0.467156 92.2195 -20.1141 -106.045 34.99 -6.63986 6.88698 -3.58153 10.5751 -103.405 0.309763 -0.0275141 -5.08654 -87.3169 -42.1103 81.2931 -20.6551 16.8515 10.047 -21.8959 -5.00534 -102.264 5.4 0.319574 1.6617 -1.21689 -5.61667 -6.93218 -11.9982 -4.77018 1.0708 
-235.401 90.1411 -198.266 107.962 -44.7727 102.137 -171.906 28.5989 85.4736 -45.9263 18.8414 -4.04699 65.2432 2.77121 6.53993 5.51734 -11.3844 1.42466 169.897 -8.20847 86.0438 -71.5794 -0.331123 -3.25561 68.3275 -3.4998 -1.81515 17.2885 2.97842 6.4157 1.31738 8.01864 -90.301 10.8499 2.48421 -0.828048 -0.819006 2.44536 -0.936636 -23.3737 2.61815 -0.0426499 -3.36107 2.61815 -0.0426573 91.6705 -22.7183 -106.18 34.2719 -5.91566 5.88524 -5.54265 10.5296 -103.596 -0.586932 -0.031087 -2.82831 -87.3603 -43.0815 81.4149 -19.2581 17.6605 9.69568 -21.1633 -6.0998 -101.853 1.87108 0.042796 -0.654034 -0.273247 -4.03023 -7.75665 -12.1044 -3.13082 2.55586 
-229.742 88.7094 -193.488 113.36 -42.4584 99.4024 -171.473 22.3031 78.2517 -53.0167 15.8838 -4.19249 70.355 6.88517 8.28381 13.1836 -7.35299 1.05029 167.866 -0.999179 79.6156 -83.4039 0.279384 -4.66036 73.3207 -7.16535 -4.01779 16.0646 3.28129 6.89936 0.562291 8.74904 -89.5361 9.37216 1.32917 0.831291 -2.29839 1.36448 0.771987 -24.8339 1.01787 1.1923 -4.8212 1.01787 1.19229 91.8536 -24.9361 -104.868 34.8137 -5.26134 5.2954 -5.80857 10.5865 -104.228 1.26259 -0.00634247 -3.81146 -87.5329 -43.7422 81.2652 -16.2166 18.9161 3.34104 -22.7882 -8.05764 -99.2474 1.3168 -0.00753267 -1.80357 3.4994 -3.00922 -8.31019 -14.3023 -1.76906 2.2188 
-224.415 87.5803 -189.045 117.307 -39.936 98.4999 -172.77 15.7863 74.5604 -58.4932 13.8259 -3.84982 77.3636 12.4376 8.65227 14.9227 -8.35644 4.12187 169.652 8.05337 76.4089 -90.8722 -3.57353 -5.29693 74.8514 -8.89603 -6.44691 17.7363 2.15965 8.211 -0.268581 9.30772 -89.0958 8.25503 -0.138115 1.79168 -3.41717 -0.0591463 1.79601 -25.9435 -0.670149 1.66741 -5.93082 -0.670122 1.6674 92.1326 -25.2146 -104.164 35.5601 -3.69599 4.66815 -2.23962 9.21934 -104.414 -2.84137 -0.0577603 -3.42126 -88.1033 -42.8494 80.1572 -15.1785 17.0585 -1.76317 -22.3251 -8.97151 -96.185 0.465022 -0.0455218 -2.47113 4.82836 -1.39196 -9.28711 -13.72 0.0650108 2.7682 
-220.539 86.5686 -184.257 112.679 -47.7792 98.9177 -167.52 17.4623 78.5667 -62.6754 11.7632 -4.94387 85.0068 17.7003 7.24529 17.0095 -7.8687 5.12431 178.706 23.8098 83.0644 -91.2818 0.528321 -5.73273 77.7195 -10.6692 -5.12742 17.5199 2.13061 8.53421 -0.0326145 8.81435 -89.3905 9.24258 0.208202 1.19238 -2.42889 0.260465 1.18205 -24.9597 -0.159751 1.19983 -4.94704 -0.159766 1.19982 91.9193 -25.4204 -104.546 34.7738 -2.20533 4.44919 -0.773323 8.27834 -104.053 -5.77621 -0.155922 -2.23927 -88.4926 -42.8262 79.5179 -13.0857 16.7112 -6.58143 -21.461 -10.445 -92.6193 -3.30654 -0.0994662 -3.27303 2.40927 0.891838 -7.9685 -11.7143 1.96812 2.70979 
